<svg t="1779432942018" viewBox="0 0 1024 1024" version="1.1" xmlns="http://www.w3.org/2000/svg" width="200" height="200">
  <defs>
    <linearGradient id="pinkGrad" x1="0%" y1="0%" x2="100%" y2="100%">
      <stop offset="0%" style="stop-color:#ffb7c5;stop-opacity:1" />
      <stop offset="50%" style="stop-color:#ff8cae;stop-opacity:1" />
      <stop offset="100%" style="stop-color:#ff6b8a;stop-opacity:1" />
    </linearGradient>
    <linearGradient id="pinkLight" x1="0%" y1="0%" x2="100%" y2="100%">
      <stop offset="0%" style="stop-color:#ffd0d9;stop-opacity:1" />
      <stop offset="100%" style="stop-color:#ff9eb5;stop-opacity:1" />
    </linearGradient>
    <linearGradient id="yellowGrad" x1="0%" y1="0%" x2="100%" y2="100%">
      <stop offset="0%" style="stop-color:#ffe566;stop-opacity:1" />
      <stop offset="50%" style="stop-color:#ffd700;stop-opacity:1" />
      <stop offset="100%" style="stop-color:#ffb800;stop-opacity:1" />
    </linearGradient>
    <linearGradient id="leafGrad" x1="0%" y1="0%" x2="100%" y2="100%">
      <stop offset="0%" style="stop-color:#66cc33;stop-opacity:1" />
      <stop offset="50%" style="stop-color:#52c41a;stop-opacity:1" />
      <stop offset="100%" style="stop-color:#3da013;stop-opacity:1" />
    </linearGradient>
    <filter id="glow" x="-20%" y="-20%" width="140%" height="140%">
      <feGaussianBlur in="SourceGraphic" stdDeviation="3" result="blur1"/>
      <feGaussianBlur in="SourceGraphic" stdDeviation="8" result="blur2"/>
      <feMerge>
        <feMergeNode in="blur2"/>
        <feMergeNode in="blur1"/>
        <feMergeNode in="SourceGraphic"/>
      </feMerge>
    </filter>
    <filter id="breathing" x="-30%" y="-30%" width="160%" height="160%">
      <feGaussianBlur in="SourceGraphic" stdDeviation="2" result="blur">
        <animate attributeName="stdDeviation" values="2;5;2" dur="2s" repeatCount="indefinite"/>
      </feGaussianBlur>
      <feMerge>
        <feMergeNode in="blur"/>
        <feMergeNode in="SourceGraphic"/>
      </feMerge>
    </filter>
  </defs>
  
  <g filter="url(#glow)">
    <path d="M512 100c-20 40-10 80 10 110 30 40 80 60 130 50 50-10 80-40 80-80 0-50-40-90-90-100-30-5-60 5-90 20z" fill="url(#pinkGrad)"/>
    <path d="M600 150c-10 25 0 50 15 70 20 30 50 40 80 30 40-15 60-50 50-90-15-50-60-80-145-10z" fill="url(#pinkLight)" opacity="0.8"/>
    <path d="M512 80c30 30 50 70 40 110-15 50-60 80-110 70-50-10-80-40-80-80 0-40 30-70 70-80 20-5 40 5 80 30z" fill="url(#pinkGrad)"/>
    <path d="M460 120c5 20 15 35 25 50 15 20 35 30 55 25 30-10 45-35 35-65-10-40-45-60-95-10z" fill="url(#pinkLight)" opacity="0.7"/>
    <path d="M512 60c-30 30-50 70-40 110 15 50 60 80 110 70 50-10 80-40 80-80 0-40-30-70-70-80-20-5-40 5-80 30z" fill="url(#pinkGrad)"/>
    <path d="M560 100c-5 20-15 35-25 50-15 20-35 30-55 25-30-10-45-35-35-65 10-40 45-60 95-10z" fill="url(#pinkLight)" opacity="0.7"/>
    
    <circle cx="512" cy="180" r="45" fill="url(#yellowGrad)"/>
    <circle cx="500" cy="170" r="8" fill="#fff" opacity="0.8"/>
    <circle cx="525" cy="185" r="5" fill="#fff" opacity="0.6"/>
    
    <path d="M512 230c0 100 0 200-20 300-10 50-30 100-60 140-30 40-70 70-110 80-50 15-100-10-120-50-20-40-10-90 10-130 30-50 50-120 40-180-5-40-5-80 0-110 10-50 40-80 80-80 50 0 90 40 100 90z" fill="url(#leafGrad)" transform="scale(-1,1) translate(-512,0)"/>
    <path d="M512 230c0 100 0 200 20 300 10 50 30 100 60 140 30 40 70 70 110 80 50 15 100-10 120-50 20-40 10-90-10-130-30-50-50-120-40-180 5-40 5-80 0-110-10-50-40-80-80-80-50 0-90 40-100 90z" fill="url(#leafGrad)"/>
  </g>
</svg>