<svg width="256" height="256" viewBox="0 0 32 32" shape-rendering="crispEdges" xmlns="http://www.w3.org/2000/svg">
   <!-- 像素郁金香 -->
   
   <!-- 花茎 -->
   <rect x="15" y="20" width="2" height="2" fill="#b7e4c7"/>
   <rect x="15" y="22" width="2" height="2" fill="#95d5b2"/>
   <rect x="15" y="24" width="2" height="2" fill="#74c69d"/>
   <rect x="15" y="26" width="2" height="2" fill="#52b788"/>
   <rect x="13" y="22" width="2" height="2" fill="#95d5b2"/>
   <rect x="13" y="24" width="2" height="2" fill="#74c69d"/>
   <rect x="13" y="26" width="2" height="2" fill="#52b788"/>
   <rect x="17" y="24" width="2" height="2" fill="#95d5b2"/>
   <rect x="17" y="26" width="2" height="2" fill="#74c69d"/>
   
   <!-- 叶子（左） -->
   <rect x="11" y="24" width="2" height="2" fill="#b7e4c7"/>
   <rect x="11" y="26" width="2" height="2" fill="#95d5b2"/>
   <rect x="9" y="26" width="2" height="2" fill="#b7e4c7"/>
   
   <!-- 叶子（右） -->
   <rect x="19" y="26" width="2" height="2" fill="#b7e4c7"/>
   
   <!-- 花苞底部 -->
   <rect x="13" y="16" width="2" height="2" fill="#fcd5ce"/>
   <rect x="15" y="16" width="2" height="2" fill="#ffe5d9"/>
   <rect x="17" y="16" width="2" height="2" fill="#fcd5ce"/>
   <rect x="13" y="18" width="2" height="2" fill="#f8ad9d"/>
   <rect x="15" y="18" width="2" height="2" fill="#fcd5ce"/>
   <rect x="17" y="18" width="2" height="2" fill="#f8ad9d"/>
   
   <!-- 花苞中部 -->
   <rect x="11" y="12" width="2" height="2" fill="#f8ad9d"/>
   <rect x="13" y="12" width="2" height="2" fill="#fcd5ce"/>
   <rect x="15" y="12" width="2" height="2" fill="#ffe5d9"/>
   <rect x="17" y="12" width="2" height="2" fill="#fcd5ce"/>
   <rect x="19" y="12" width="2" height="2" fill="#f8ad9d"/>
   
   <rect x="11" y="14" width="2" height="2" fill="#f8ad9d"/>
   <rect x="13" y="14" width="2" height="2" fill="#fcd5ce"/>
   <rect x="15" y="14" width="2" height="2" fill="#ffe5d9"/>
   <rect x="17" y="14" width="2" height="2" fill="#fcd5ce"/>
   <rect x="19" y="14" width="2" height="2" fill="#f8ad9d"/>
   
   <!-- 花苞上层 -->
   <rect x="12" y="8" width="2" height="2" fill="#fcd5ce"/>
   <rect x="14" y="8" width="2" height="2" fill="#ffe5d9"/>
   <rect x="16" y="8" width="2" height="2" fill="#fff3b0"/>
   <rect x="18" y="8" width="2" height="2" fill="#fcd5ce"/>
   
   <rect x="12" y="10" width="2" height="2" fill="#f8ad9d"/>
   <rect x="14" y="10" width="2" height="2" fill="#fcd5ce"/>
   <rect x="16" y="10" width="2" height="2" fill="#ffe5d9"/>
   <rect x="18" y="10" width="2" height="2" fill="#f8ad9d"/>
   
   <!-- 花瓣顶部（3个尖角） -->
   <rect x="13" y="4" width="2" height="2" fill="#fff3b0"/>
   <rect x="15" y="4" width="2" height="2" fill="#fff7d6"/>
   <rect x="17" y="4" width="2" height="2" fill="#fff3b0"/>
   <rect x="14" y="6" width="2" height="2" fill="#ffe5d9"/>
   <rect x="16" y="6" width="2" height="2" fill="#fff3b0"/>
   <rect x="10" y="8" width="2" height="2" fill="#f8ad9d"/>
   <rect x="20" y="8" width="2" height="2" fill="#f8ad9d"/>
   
   <!-- 边缘阴影 -->
   <rect x="10" y="12" width="1" height="2" fill="#d8e2dc"/>
   <rect x="21" y="12" width="1" height="2" fill="#d8e2dc"/>
 </svg>